HIERARCHY
ROOT Hips
{
	OFFSET -14.64140 90.27770 -84.91600
	CHANNELS 6 Xposition Yposition Zposition Zrotation Xrotation Yrotation
	JOINT Spine
	{
		OFFSET 0.00000 13.20850 -1.60436
		CHANNELS 3 Zrotation Xrotation Yrotation
		JOINT Spine1
		{
			OFFSET 0.00000 8.61716 0.00000
			CHANNELS 3 Zrotation Xrotation Yrotation
			JOINT Spine2
			{
				OFFSET 0.00000 8.61717 0.00000
				CHANNELS 3 Zrotation Xrotation Yrotation
				JOINT Spine3
				{
					OFFSET 0.00000 8.61717 0.00000
					CHANNELS 3 Zrotation Xrotation Yrotation
					JOINT Neck
					{
						OFFSET 0.00000 11.07920 1.10792
						CHANNELS 3 Zrotation Xrotation Yrotation
						JOINT Neck1
						{
							OFFSET 0.00000 7.08032 0.00000
							CHANNELS 3 Zrotation Xrotation Yrotation
							JOINT Head
							{
								OFFSET 0.00000 7.08031 0.00000
								CHANNELS 3 Zrotation Xrotation Yrotation
								End site
								{
									OFFSET 0.00000 0.00000 0.00000
								}
							}
						}
					}
					JOINT RightShoulder
					{
						OFFSET -0.01000 7.91373 5.19711
						CHANNELS 3 Zrotation Xrotation Yrotation
						JOINT RightArm
						{
							OFFSET -18.41580 0.00000 0.00000
							CHANNELS 3 Zrotation Xrotation Yrotation
							JOINT RightForeArm
							{
								OFFSET -29.11090 0.00000 0.00000
								CHANNELS 3 Zrotation Xrotation Yrotation
								JOINT RightHand
								{
									OFFSET -24.65040 0.00000 0.00000
									CHANNELS 3 Zrotation Xrotation Yrotation
									JOINT RightHandThumb1
									{
										OFFSET -5.35114 -0.85590 3.97906
										CHANNELS 3 Zrotation Xrotation Yrotation
										JOINT RightHandThumb2
										{
											OFFSET -4.52789 0.00000 0.00000
											CHANNELS 3 Zrotation Xrotation Yrotation
											JOINT RightHandThumb3
											{
												OFFSET -2.46976 0.00000 0.00000
												CHANNELS 3 Zrotation Xrotation Yrotation
												End site
												{
													OFFSET 0.00000 0.00000 0.00000
												}
											}
										}
									}
									JOINT RightHandIndex1
									{
										OFFSET -14.26970 0.00000 2.88139
										CHANNELS 3 Zrotation Xrotation Yrotation
										JOINT RightHandIndex2
										{
											OFFSET -5.48836 0.00000 0.00000
											CHANNELS 3 Zrotation Xrotation Yrotation
											JOINT RightHandIndex3
											{
												OFFSET -3.01859 0.00000 0.00000
												CHANNELS 3 Zrotation Xrotation Yrotation
												End site
												{
													OFFSET 0.00000 0.00000 0.00000
												}
											}
										}
									}
									JOINT RightHandMiddle1
									{
										OFFSET -14.26970 0.00000 -0.09147
										CHANNELS 3 Zrotation Xrotation Yrotation
										JOINT RightHandMiddle2
										{
											OFFSET -6.17441 0.00000 0.00000
											CHANNELS 3 Zrotation Xrotation Yrotation
											JOINT RightHandMiddle3
											{
												OFFSET -3.56743 0.00000 0.00000
												CHANNELS 3 Zrotation Xrotation Yrotation
												End site
												{
													OFFSET 0.00000 0.00000 0.00000
												}
											}
										}
									}
									JOINT RightHandRing1
									{
										OFFSET -12.69180 0.00000 -3.06433
										CHANNELS 3 Zrotation Xrotation Yrotation
										JOINT RightHandRing2
										{
											OFFSET -5.62556 0.00000 0.00000
											CHANNELS 3 Zrotation Xrotation Yrotation
											JOINT RightHandRing3
											{
												OFFSET -3.56744 0.00000 0.00000
												CHANNELS 3 Zrotation Xrotation Yrotation
												End site
												{
													OFFSET 0.00000 0.00000 0.00000
												}
											}
										}
									}
									JOINT RightHandPinky1
									{
										OFFSET -11.11390 0.00000 -6.03719
										CHANNELS 3 Zrotation Xrotation Yrotation
										JOINT RightHandPinky2
										{
											OFFSET -4.52789 0.00000 0.00000
											CHANNELS 3 Zrotation Xrotation Yrotation
											JOINT RightHandPinky3
											{
												OFFSET -2.46976 0.00000 0.00000
												CHANNELS 3 Zrotation Xrotation Yrotation
												End site
												{
													OFFSET 0.00000 0.00000 0.00000
												}
											}
										}
									}
								}
							}
						}
					}
					JOINT LeftShoulder
					{
						OFFSET 0.01000 7.91373 5.19711
						CHANNELS 3 Zrotation Xrotation Yrotation
						JOINT LeftArm
						{
							OFFSET 18.41580 0.00000 0.00000
							CHANNELS 3 Zrotation Xrotation Yrotation
							JOINT LeftForeArm
							{
								OFFSET 29.11090 0.00000 0.00000
								CHANNELS 3 Zrotation Xrotation Yrotation
								JOINT LeftHand
								{
									OFFSET 24.65040 0.00000 0.00000
									CHANNELS 3 Zrotation Xrotation Yrotation
									JOINT LeftHandThumb1
									{
										OFFSET 5.35114 -0.85590 3.97906
										CHANNELS 3 Zrotation Xrotation Yrotation
										JOINT LeftHandThumb2
										{
											OFFSET 4.52789 0.00000 0.00000
											CHANNELS 3 Zrotation Xrotation Yrotation
											JOINT LeftHandThumb3
											{
												OFFSET 2.46977 0.00000 0.00000
												CHANNELS 3 Zrotation Xrotation Yrotation
												End site
												{
													OFFSET 0.00000 0.00000 0.00000
												}
											}
										}
									}
									JOINT LeftHandIndex1
									{
										OFFSET 14.26970 0.00000 2.88139
										CHANNELS 3 Zrotation Xrotation Yrotation
										JOINT LeftHandIndex2
										{
											OFFSET 5.48836 0.00000 0.00000
											CHANNELS 3 Zrotation Xrotation Yrotation
											JOINT LeftHandIndex3
											{
												OFFSET 3.01859 0.00000 0.00000
												CHANNELS 3 Zrotation Xrotation Yrotation
												End site
												{
													OFFSET 0.00000 0.00000 0.00000
												}
											}
										}
									}
									JOINT LeftHandMiddle1
									{
										OFFSET 14.26970 0.00000 -0.09147
										CHANNELS 3 Zrotation Xrotation Yrotation
										JOINT LeftHandMiddle2
										{
											OFFSET 6.17440 0.00000 0.00000
											CHANNELS 3 Zrotation Xrotation Yrotation
											JOINT LeftHandMiddle3
											{
												OFFSET 3.56744 0.00000 0.00000
												CHANNELS 3 Zrotation Xrotation Yrotation
												End site
												{
													OFFSET 0.00000 0.00000 0.00000
												}
											}
										}
									}
									JOINT LeftHandRing1
									{
										OFFSET 12.69180 0.00000 -3.06433
										CHANNELS 3 Zrotation Xrotation Yrotation
										JOINT LeftHandRing2
										{
											OFFSET 5.62556 0.00000 0.00000
											CHANNELS 3 Zrotation Xrotation Yrotation
											JOINT LeftHandRing3
											{
												OFFSET 3.56744 0.00000 0.00000
												CHANNELS 3 Zrotation Xrotation Yrotation
												End site
												{
													OFFSET 0.00000 0.00000 0.00000
												}
											}
										}
									}
									JOINT LeftHandPinky1
									{
										OFFSET 11.11390 0.00000 -6.03719
										CHANNELS 3 Zrotation Xrotation Yrotation
										JOINT LeftHandPinky2
										{
											OFFSET 4.52789 0.00000 0.00000
											CHANNELS 3 Zrotation Xrotation Yrotation
											JOINT LeftHandPinky3
											{
												OFFSET 2.46976 0.00000 0.00000
												CHANNELS 3 Zrotation Xrotation Yrotation
												End site
												{
													OFFSET 0.00000 0.00000 0.00000
												}
											}
										}
									}
								}
							}
						}
					}
					JOINT pCube4
					{
						OFFSET 0.00000 10.91090 1.10792
						CHANNELS 3 Zrotation Xrotation Yrotation
						End site
						{
							OFFSET 0.00000 0.00000 0.00000
						}
					}
				}
			}
		}
	}
	JOINT RightUpLeg
	{
		OFFSET -9.98441 0.00000 0.00000
		CHANNELS 3 Zrotation Xrotation Yrotation
		JOINT RightLeg
		{
			OFFSET 0.00000 -42.11790 0.00000
			CHANNELS 3 Zrotation Xrotation Yrotation
			JOINT RightFoot
			{
				OFFSET 0.00000 -45.00020 -0.00001
				CHANNELS 3 Zrotation Xrotation Yrotation
				JOINT RightForeFoot
				{
					OFFSET 0.00000 -3.74820 0.00000
					CHANNELS 3 Zrotation Xrotation Yrotation
					JOINT RightToeBase
					{
						OFFSET 0.00000 0.06325 14.43120
						CHANNELS 3 Zrotation Xrotation Yrotation
						End site
						{
							OFFSET 0.00000 0.00000 0.00000
						}
					}
				}
			}
		}
	}
	JOINT LeftUpLeg
	{
		OFFSET 9.98441 0.00000 0.00000
		CHANNELS 3 Zrotation Xrotation Yrotation
		JOINT LeftLeg
		{
			OFFSET 0.00000 -42.11800 0.00000
			CHANNELS 3 Zrotation Xrotation Yrotation
			JOINT LeftFoot
			{
				OFFSET 0.00000 -45.00070 0.00000
				CHANNELS 3 Zrotation Xrotation Yrotation
				JOINT LeftForeFoot
				{
					OFFSET 0.00000 -3.74824 0.00000
					CHANNELS 3 Zrotation Xrotation Yrotation
					JOINT LeftToeBase
					{
						OFFSET 0.00000 0.06325 14.43110
						CHANNELS 3 Zrotation Xrotation Yrotation
						End site
						{
							OFFSET 0.00000 0.00000 0.00000
						}
					}
				}
			}
		}
	}
}
MOTION
Frames: 4
Frame Time: 0.050000
-0.03427962177474289 0.04569751984895803 -0.02916395847386771 -0.0076517175968781 -0.02665333337866073 0.04516315691678002 -3.128458836227224 6.599227284530281 -0.7597454947168514 -0.6581951571226548 3.21800127325363 0.4114285593674163 -0.8571479804622919 -0.09578956337052669 -0.5867861393073036 -0.2921008364942763 0.2166770429270924 -0.7932763424325254 -0.08616340552560386 7.418845875124726 -0.6001223834479219 -0.0078115481728268064 -2.0109359624399947 -4.583953294730959 0.3197103420222708 -16.98112561683081 -0.3576699319853417 4.2238870642495145 -0.10765279633666736 -11.275291548084146 70.98375481224895 9.06237506514698 5.771768089428378 18.862870050274257 13.81687704158278 67.13619360440114 26.019367163926606 0.1081063105336739 -8.73895845272302 4.518614070020631 -0.10148640082324055 -1.6414848747382 0.018823003602737403 0.005933755598083742 -56.24504123553479 -0.032935672208025665 -0.004030057748959712 -56.258390025470575 -38.765895927358685 0.0074611294381000115 0.0436962830855747 -0.011048749892559427 0.0033484120818150537 0.043046872986792474 0.04075218126213235 -0.025711340465356527 -0.04864595532900723 -36.65480283693846 -0.04249428220280865 0.015389054725935946 0.014962672078771829 -0.026675403149376324 -0.00286617485004043 0.013588868129515258 -0.018491169624903308 -0.03970311815885129 -19.713408889656048 0.012829697136349445 -0.04430318018096018 -0.04153459004454985 -0.046755325634783455 0.04071046087739698 -0.04340597669651418 -0.03246698568132052 0.011368049916351411 24.059394795802298 -0.04361090197703599 -0.014675007238462686 28.820579963771014 0.04756757993180013 -0.045571409999297555 28.860928731048162 -0.001804651597670791 0.0070777905590324215 -3.2600580796278757 -0.036162199694187776 10.064912485385543 -68.84172810634446 18.631186338286124 -7.795501884973565 -9.418164395183876 9.647972029647947 -49.03653625405251 -17.836563080856006 5.712041190654845 -1.4991107480277435 -0.44823301587398856 0.03571997508218241 -8.13680697775803 -0.010576149192882309 0.045740102025685264 44.609389773084835 -0.030986213443211754 -0.013644673960955641 44.59800846992723 12.437667918654144 -0.027648862955776215 -0.04796613041641894 0.02485723879560011 -0.048933064885251086 0.0024894362950288345 -0.020682706161469 -0.01319598373356176 -0.0389496309066499 11.138895800738963 0.012533941606770202 0.035980767779732206 0.024288513130084472 0.04852084696243931 -0.006958885595189115 0.044049594462823784 0.04077836233688716 0.006676928025201557 4.759533395563975 -0.025953238366608018 -0.02083186043836512 0.022564901617787927 -0.022615784354778574 0.03837993742020423 -0.029096416843099434 -0.038255566572908406 0.01088041312081396 -5.621597249273625 0.03212336651261478 -0.028044504721681907 -6.7154290126453935 -0.03636444408573076 -0.0014383611395287082 -6.767103325449918 0.041408165050988564 -0.03975018932500929 0.041423246902192554 -0.024463713570591527 -0.019557297240460222 8.086964506956491 3.450761759589532 -19.17712961328197 0.027976415087970666 10.442680897997885 0.01891234133540376 -5.647045093433024 -15.694059660328897 3.2167174933422453 0.038563643678050964 -0.04309595813564688 -0.022639754310051212 0.006964758429653459 4.728183449543291 -0.014509624349770813 12.444565473424317 -8.233882608596854 6.838444970280148 -0.011755017853484302 46.34131022779399 0.007506430819301495 -4.305924841142778 -14.726518243922193 -3.792589831856738 -0.014179371964815493 -0.008687254792169754 0.046260097155332816 0.013297868992389378 -10.740663584063965 -0.029431021234186745 
0.026148136830883403 -0.04977130801435997 0.023978318860165816 -0.00048685634720344284 0.048939757204046995 -0.02154709862052978 -2.174116068003617 5.648912693893798 -0.9119976330195915 -0.6692175457368347 3.3376339039027294 0.36563979034012395 -0.8650869379200183 -0.34112167890479494 -0.4381314013692282 -0.28525370388832905 0.2101814850350721 -0.7613073646684342 -0.07852989176875697 8.331032803052137 -0.7449213366697868 -0.009795599335205851 -1.9625911819478172 -4.5266109424024 0.46714588583254096 -17.344455022236726 -0.33349658642202995 2.1761046638687844 0.4334125919069105 -11.752992191151863 72.59720566922131 10.23610523956232 8.3530432020295 29.84234894509235 11.412913612815391 76.03363242517361 23.364647585765276 0.0072856825695411485 -9.158662427223454 4.578106791545762 -0.11319279011797212 -1.5484750840753336 0.00012122895746347206 -0.0046612712471239045 -56.20267485828874 0.018888031958921563 0.046047513536600325 -56.20398021680882 -38.7606173363872 -0.022088786404436934 -0.010578626370781991 -0.020257282190568385 -0.037836454664804016 -0.02834653719419456 0.043350633257740676 -0.0010996199781887716 -0.038747311859493795 -36.68047707994281 0.022370477520369567 0.005744234877890077 0.04195119716730869 -0.0397129917446469 -0.027116187237198584 -0.022924531128973063 0.04239198158648157 -0.0331073241562321 -19.71124897394465 0.0074555518719352275 -0.02768948377882197 -0.0060250997750327115 -0.017275717149451267 -0.0486349736757061 0.03390563680448262 0.007184920435042372 0.01855493897437249 24.08146980634727 -0.00855229799494958 0.00975701987221052 28.8541044552807 -0.035954459275762816 0.032632337582125644 28.827144839009335 -0.010112676259485887 0.0309252720001623 -1.1498970512802766 0.41940610853304605 10.441292459720795 -70.19453921500538 19.810230083441144 -8.99780400969231 -15.019049390743318 9.365424146090763 -52.8726923554001 -16.422663307942678 4.4813217607334055 -0.6630508252709356 -0.44251621278335196 0.09103575327098777 -8.172542084039861 0.040005477882541454 -0.02915680260557264 44.56545011719977 0.005363212464791509 0.047718104248271574 44.61282017143683 12.422983551289361 0.027393924150788954 0.03220749987418532 0.010254088735644984 0.007165865703920874 0.006774797659069546 -0.038492006876872834 0.0437920214569311 -0.0067538408297979505 11.14189114272871 0.010156964519750645 0.04756245748987763 0.02855752300996165 -0.027013116590434712 0.02002102477909906 -0.035799674251059774 -0.03378104430150026 -0.0007662729541332608 4.763964720455547 0.006570930118456396 -0.002197786500073091 -0.012863177104326778 -0.0021046684401785135 0.020711517660344493 0.028279948583592812 0.04302818272641757 -0.04070513859618026 -5.608133673758587 -0.04723995559027326 -0.005942035911590179 -6.6819079442135365 -0.03099805036148317 -0.018899734623427162 -6.726548292260498 -0.007850907006145555 -0.018553776186213566 -0.04881038534845439 -0.03959332773888914 0.03437549346310963 8.074338044916761 3.512085454139268 -19.216317564654698 -0.03093472981557237 10.383640623015392 0.022642690423007268 -5.582117796207289 -15.66104690794657 3.2289454245031366 -0.004717412617447375 0.02179124356416719 0.020604800039743368 0.0446598360133128 4.6817457801546265 -0.002382093961612241 12.413849238989151 -8.214264639525197 6.85940551814297 -0.024946848776459342 46.374535730757046 0.04152065826066382 -4.331139406993963 -14.776409510944006 -3.830785924853526 -0.021683537482492604 0.0033007928404893685 0.010482415097676352 -0.019423550355588844 -10.792398479524403 -0.0007894422110718987 
0.0012466017920405375 -0.02345254728400714 -0.03362817754916242 0.029610604835385048 0.04586199313802438 -0.023579981880750694 -1.3175393020631996 4.84624926439231 -1.0302025915412565 -0.7097829587035522 3.3877407485613076 0.39330106047082314 -0.8470071349384385 -0.5844843168188817 -0.2772032125039142 -0.31514525991580306 0.14509965115341023 -0.699562394548843 -0.0666157201374821 9.138421453859658 -0.8016846145558421 0.10127084198865129 -1.7698734897630914 -4.378680152727407 0.44995320394041516 -17.348304920378876 -0.33466686891386344 0.04144086118479848 0.9289204799100729 -12.253832231078741 74.43757073086292 10.99857125086934 10.612918156489842 38.15464538618456 8.172717836391598 82.61383525703808 20.99742996518145 -0.03559520899798104 -9.126676073293362 4.512660019925717 -0.10136967587366065 -1.5535342215832848 0.0273118606777606 0.0490006468579686 -56.28407126928725 -0.012336746955576327 -0.0008485488652629308 -56.20794266021032 -38.77059388574429 -0.025203241279695456 -0.033693457365105935 -0.03083310023209444 -0.010959816359011677 -0.0067678018098484395 0.013399696356693329 0.029113309087986077 0.008742443672119843 -36.70205562643261 0.01389551568197192 0.008357897864964835 0.031706611517955716 -0.006756697089461226 -0.0025358822043471682 -0.006161540190373006 0.04862051330406433 0.006671085074729217 -19.73271301125114 0.0018221146667285178 -0.004637972364120969 -0.02836382497686027 -0.0017226970022909305 -0.004717439639828278 -0.027654049431162762 -0.003039182524481721 -0.019033045529393455 24.053170375927632 0.04121571781398039 -0.008324365379656754 28.878397674029088 0.02625943932677526 -0.03579352724604604 28.89357133615587 -0.005430349450624485 0.027046942136508458 0.8470224959948571 0.7575961045510744 10.826407536450446 -71.43263677887421 20.759120996002924 -10.036313800845704 -19.72841174450445 8.236743652637227 -56.10995604476116 -15.156208283303057 3.029620248135823 0.3230726681740139 -0.5060627818535375 0.07535859301064192 -8.081412768803139 -0.02384826603451645 0.030611054462382162 44.61698410908605 -0.022203389650580368 -0.02827794906048199 44.615318023755876 12.487714380374088 0.01817890392381013 0.03396834737511034 -0.026892633666954914 0.017704327580049008 0.0148444571281215 -0.04733420201202237 -0.013345013918993495 -0.020469267671519388 11.100843421574265 -0.03188490808147824 0.009246316193513293 -0.010072405775272885 -0.004746119347139529 -0.02708069599851933 -0.02245017920726362 -0.044044556595826345 0.010596667981670332 4.737417457127814 0.016889333456093357 -0.009166369277050774 0.032702566113173834 -0.02371497388404025 -0.03249830667288237 0.035015789231845285 0.037452631949387465 0.010426954330514701 -5.600324217538093 -0.01981135224425529 0.03904320963842564 -6.733519809693212 -0.03283254449176986 0.011388695349857435 -6.71929228524315 0.036530072126907925 0.030785613378633756 -0.044945057676378034 0.02700844708088721 -0.00227802881801 8.018082441697057 3.497529407134951 -19.230042331002917 -0.031063000243684618 10.373135058289654 -0.004125505197208265 -5.616813574681458 -15.63540895003918 3.210825824454655 0.028148351240203734 0.048198475044154476 0.026554496893591968 0.02093075246496375 4.6506748104900515 -0.010171892882493204 12.439574138486439 -8.249509173732156 6.91978198910042 -0.04212529518712706 46.413971099467254 0.035195838102002996 -4.304602890876371 -14.76320312370233 -3.845367131349642 -0.033115871279628784 0.035576046145971686 -0.006720243717419262 0.004516990550457014 -10.701517616109124 0.012802067982325013 
0.041349775660069005 -0.00432058820521805 -0.0036726595808464005 0.006682078063619471 -0.03754681799925291 -0.02633020995590865 -0.4696991587145713 4.330447780331501 -1.152312527396911 -0.7300240661301532 3.4462730302831917 0.373845139387881 -0.8319709590273839 -0.7621694522551716 -0.1062622103427515 -0.2215913945288775 0.11194451537665062 -0.6211255583882489 -0.03687243604425976 9.70981348431224 -0.9369156651124971 0.06009783495582256 -1.6068951493227874 -4.430452325124143 0.4944891306736213 -17.327989817755046 -0.3461215501218126 -1.7017988025329476 1.4139829162515203 -12.711132406577098 76.00825081782683 11.04283061007502 12.196486637935639 42.83664770843015 5.750156419210949 85.98718326131909 19.264776409569468 -0.20804986752370225 -8.787032918261527 4.55005991280488 -0.1407634286338579 -1.6307542381607858 -0.034368171089410156 -0.01876989504929829 -56.27076277459196 -0.024706547345448904 0.03944442065815129 -56.21830104705237 -38.73586615646394 -0.022468159719799066 0.03392801090876978 -0.0372197947297463 0.02710117353432369 0.03318508824666045 -0.03688777433821703 0.02696167150253504 -0.01073220694687587 -36.72070787354441 0.03659095748240905 -0.03380123483488786 0.043832610038603115 -0.024676046333507326 -0.0007886370578065264 -0.027400094953397628 -0.017407038717338282 -0.04356212008795259 -19.731667323544567 0.01494954369737158 0.048880134501084305 -0.01172669759774933 -0.009168773347460506 -0.017219408062331944 0.018146391635113508 0.029420169011690294 -0.008539847561840607 24.03413746978835 0.03823014630329907 0.02495156741644931 28.83307772614082 0.007377652200280226 -0.018537842380003857 28.847884901124498 -0.03773280850786852 -0.009320497587195943 2.4721875667567095 1.0209291648548133 11.128762834823286 -72.46254185559383 21.0582807995933 -10.694263658111737 -21.560864291543478 6.40405704253701 -57.40039722198931 -14.734040115354565 1.500961125388877 1.1447217630994793 -0.4369474486627393 0.02920607634421439 -8.149898972006168 -0.0021340781901825917 -0.027297316147914506 44.53722013197114 0.038956545893687085 -0.042345854383239366 44.60010079095111 12.496375204641298 -0.03351258814488204 0.014817510527493869 0.03850579123186187 -0.005283724291270608 0.016607601175726138 -0.00045190941975072773 0.04013545898514796 -0.028505720121685684 11.13608579450399 -0.017017401070054998 -0.022017996825170676 -0.01762724828328948 -0.033122766377320104 0.039254310711700796 0.018575515953622924 -0.023534945860509308 0.00795184335442221 4.73190779305556 0.044620064015656775 0.04617078633283813 0.04644549352003438 0.01607676111152097 -0.015736318855648593 -0.01147282812112811 -0.008425418760869722 -0.01634988296937526 -5.576922036956111 -0.030082907304283472 -0.036166652544498294 -6.719650318046016 -0.025348445549629797 0.03563786837593974 -6.740120137391863 -0.03785373284273639 0.03313094572428594 -0.033522528351928975 -0.03076200008948565 -0.002037020587398061 8.07158347100729 3.524857200689275 -19.19040199191943 -0.01998290084645958 10.367593587601915 0.013208590904649608 -5.58015255139667 -15.687922337285986 3.1776181805750543 -0.02475436719124459 0.01340676651983336 0.003012935000754054 0.023515305216576902 4.671026336953508 -0.0062378386066337475 12.431851599201199 -8.197655904210304 6.895987749272994 -0.02569349119086172 46.3531460568552 0.029689091669436878 -4.310368098183672 -14.711424274470069 -3.7946131790255757 -0.021517129358362783 -0.03325698153008361 0.03754641129158489 -0.04906130888404287 -10.699934515649456 0.03243066755273742 
